<svg width="30" height="30" viewBox="0 0 30 30" fill="none" xmlns="http://www.w3.org/2000/svg">
<g clip-path="url(#clip0_235_49)">
<path d="M25.3969 5.61497C23.4844 4.75247 21.4344 4.11497 19.2906 3.75247C19.2715 3.7488 19.2517 3.75116 19.2341 3.75923C19.2164 3.76729 19.2016 3.78065 19.1919 3.79747C18.9293 4.25872 18.6369 4.85997 18.4319 5.33497C16.1582 4.99526 13.8467 4.99526 11.5731 5.33497C11.3448 4.80854 11.0873 4.29525 10.8019 3.79747C10.7922 3.78045 10.7775 3.76678 10.7599 3.75829C10.7423 3.74981 10.7224 3.7469 10.7031 3.74997C8.5606 4.11247 6.5106 4.74997 4.59685 5.61372C4.58039 5.62062 4.56643 5.6324 4.55685 5.64747C0.666851 11.3662 -0.399399 16.9437 0.124351 22.4512C0.125808 22.4647 0.129995 22.4778 0.136657 22.4896C0.143319 22.5014 0.152316 22.5117 0.163101 22.52C2.43359 24.173 4.96602 25.4322 7.65435 26.245C7.67309 26.2507 7.69314 26.2507 7.71187 26.2449C7.7306 26.2391 7.74715 26.2278 7.75935 26.2125C8.33685 25.4375 8.85185 24.6187 9.29185 23.7587C9.3181 23.7087 9.2931 23.6487 9.2406 23.6287C8.43311 23.3246 7.65071 22.9577 6.9006 22.5312C6.88712 22.5235 6.87576 22.5126 6.86755 22.4994C6.85933 22.4863 6.85451 22.4713 6.85352 22.4558C6.85253 22.4403 6.8554 22.4248 6.86187 22.4107C6.86834 22.3966 6.87821 22.3843 6.8906 22.375C7.0481 22.2587 7.2056 22.1375 7.3556 22.0162C7.3691 22.0053 7.38537 21.9984 7.40258 21.9962C7.4198 21.994 7.43728 21.9966 7.4531 22.0037C12.3619 24.2087 17.6781 24.2087 22.5294 22.0037C22.5452 21.9962 22.5629 21.9932 22.5803 21.9952C22.5978 21.9972 22.6143 22.004 22.6281 22.015C22.7781 22.1375 22.9344 22.2587 23.0931 22.375C23.1056 22.3841 23.1156 22.3962 23.1223 22.4102C23.129 22.4242 23.1321 22.4396 23.1314 22.4551C23.1306 22.4706 23.1261 22.4856 23.1181 22.4989C23.1101 22.5122 23.0989 22.5233 23.0856 22.5312C22.3381 22.9612 21.5606 23.325 20.7444 23.6275C20.7318 23.632 20.7204 23.6392 20.7109 23.6485C20.7013 23.6578 20.6939 23.6691 20.689 23.6815C20.6842 23.6939 20.682 23.7072 20.6827 23.7205C20.6834 23.7339 20.687 23.7469 20.6931 23.7587C21.1431 24.6175 21.6581 25.435 22.2243 26.2112C22.2361 26.2271 22.2525 26.2391 22.2713 26.2453C22.2901 26.2516 22.3104 26.2519 22.3294 26.2462C25.0223 25.4358 27.5589 24.1759 29.8319 22.52C29.8429 22.5122 29.8522 22.5022 29.8591 22.4905C29.866 22.4789 29.8704 22.4659 29.8718 22.4525C30.4968 16.085 28.8244 10.5525 25.4356 5.64997C25.4273 5.63404 25.4135 5.62162 25.3969 5.61497ZM10.0256 19.0975C8.5481 19.0975 7.32935 17.7612 7.32935 16.1225C7.32935 14.4825 8.52435 13.1475 10.0256 13.1475C11.5381 13.1475 12.7456 14.4937 12.7219 16.1225C12.7219 17.7625 11.5269 19.0975 10.0256 19.0975ZM19.9944 19.0975C18.5156 19.0975 17.2981 17.7612 17.2981 16.1225C17.2981 14.4825 18.4918 13.1475 19.9944 13.1475C21.5069 13.1475 22.7144 14.4937 22.6906 16.1225C22.6906 17.7625 21.5081 19.0975 19.9944 19.0975Z" fill="black"/>
</g>
<defs>
<clipPath id="clip0_235_49">
<rect width="30" height="30" fill="white"/>
</clipPath>
</defs>
</svg>
