<svg width="30" height="30" viewBox="0 0 30 30" fill="none" xmlns="http://www.w3.org/2000/svg">
<path d="M29.5544 6.17122C28.5106 6.63372 27.3894 6.94622 26.2106 7.08747C27.4269 6.35971 28.3368 5.21431 28.7706 3.86497C27.6279 4.54371 26.3773 5.02147 25.0731 5.27747C24.1961 4.34106 23.0345 3.72038 21.7685 3.51182C20.5026 3.30325 19.2032 3.51846 18.0722 4.12404C16.9411 4.72962 16.0416 5.69168 15.5133 6.86085C14.985 8.03003 14.8575 9.34091 15.1506 10.59C12.8352 10.4737 10.5702 9.87191 8.50241 8.82361C6.43465 7.7753 4.61043 6.30393 3.14812 4.50497C2.64812 5.36747 2.36063 6.36747 2.36063 7.43247C2.36007 8.39122 2.59617 9.33528 3.04797 10.1809C3.49978 11.0265 4.15333 11.7475 4.95062 12.28C4.02597 12.2506 3.12172 12.0007 2.31313 11.5512V11.6262C2.31303 12.9709 2.77817 14.2742 3.6296 15.315C4.48104 16.3557 5.66634 17.0699 6.98438 17.3362C6.1266 17.5684 5.2273 17.6026 4.35437 17.4362C4.72625 18.5932 5.45062 19.605 6.42608 20.3299C7.40155 21.0548 8.57927 21.4564 9.79438 21.4787C7.73167 23.098 5.18423 23.9763 2.56187 23.9725C2.09735 23.9726 1.63322 23.9455 1.17188 23.8912C3.83372 25.6027 6.9323 26.511 10.0969 26.5075C20.8094 26.5075 26.6656 17.635 26.6656 9.93997C26.6656 9.68997 26.6594 9.43747 26.6481 9.18747C27.7872 8.36369 28.7705 7.34359 29.5519 6.17497L29.5544 6.17122Z" fill="black"/>
</svg>
